<svg width="48" height="48" viewBox="0 0 48 48" fill="none" xmlns="http://www.w3.org/2000/svg">
<mask id="mask0_3_87" style="mask-type:alpha" maskUnits="userSpaceOnUse" x="0" y="0" width="48" height="48">
<rect width="48" height="48" fill="#D9D9D9"/>
</mask>
<g mask="url(#mask0_3_87)">
<path d="M24 30.2C23.8 30.2 23.6166 30.1667 23.45 30.1C23.2833 30.0333 23.1166 29.9167 22.95 29.75L13.05 19.85C12.75 19.55 12.6083 19.1917 12.625 18.775C12.6416 18.3583 12.8 18 13.1 17.7C13.4 17.4 13.7583 17.25 14.175 17.25C14.5916 17.25 14.95 17.4 15.25 17.7L24 26.5L32.8 17.7C33.1 17.4 33.45 17.2583 33.85 17.275C34.25 17.2917 34.6 17.45 34.9 17.75C35.2 18.05 35.35 18.4083 35.35 18.825C35.35 19.2417 35.2 19.6 34.9 19.9L25.05 29.75C24.8833 29.9167 24.7166 30.0333 24.55 30.1C24.3833 30.1667 24.2 30.2 24 30.2Z" fill="white"/>
</g>
</svg>
